<svg xmlns="http://www.w3.org/2000/svg" viewBox="0 0 81.7 41.79">
  <defs>
    <style>
      .cls-1, .cls-11, .cls-4 {
        fill: none;
      }

      .cls-2 {
        fill: #ff6c02;
      }

      .cls-3 {
        fill: #ff6584;
      }

      .cls-4 {
        stroke: #3f3d56;
      }

      .cls-11, .cls-4 {
        stroke-miterlimit: 10;
        stroke-width: 0.35px;
      }

      .cls-5 {
        fill: #3f3d56;
      }

      .cls-6 {
        opacity: 0.1;
      }

      .cls-11, .cls-6, .cls-9 {
        isolation: isolate;
      }

      .cls-7 {
        fill: #ffb9b9;
      }

      .cls-8 {
        fill: #2f2e41;
      }

      .cls-11, .cls-9 {
        opacity: 0.2;
      }

      .cls-10 {
        fill: #aa80ff;
      }

      .cls-11 {
        stroke: #000;
      }

      .cls-12 {
        fill: #575a89;
      }

      .cls-13 {
        fill: #fff;
      }
    </style>
  </defs>
  <g id="Layer_2" data-name="Layer 2">
    <g id="Layer_1-2" data-name="Layer 1">
      <rect class="cls-1" width="81.69" height="41.71"/>
      <circle class="cls-2" cx="25.4" cy="3.32" r="2.81"/>
      <circle class="cls-3" cx="69.83" cy="27.23" r="1.03"/>
      <line class="cls-4" x1="77.94" y1="38.43" x2="77.94" y2="26.72"/>
      <circle class="cls-5" cx="77.94" cy="26.72" r="1.66"/>
      <path class="cls-5" d="M74.68,33.27a13.58,13.58,0,0,0-1.74,8.34,13.57,13.57,0,0,0,6.93-5,13.58,13.58,0,0,0,1.74-8.34A13.57,13.57,0,0,0,74.68,33.27Z"/>
      <path class="cls-2" d="M72.93,41.57h-.17l-.34-.08a13.35,13.35,0,0,1-6.94-4,13.59,13.59,0,0,1-2.67-8.08,13.79,13.79,0,0,1,7.09,3.72c.12.13.24.27.35.41a13.49,13.49,0,0,1,2.68,7.85Z"/>
      <path class="cls-4" d="M71.21,33.27a13.27,13.27,0,0,1,1.68,8.29A13.28,13.28,0,0,1,66,36.66a13.58,13.58,0,0,1-1.74-8.34A13.67,13.67,0,0,1,71.21,33.27Z"/>
      <path class="cls-6" d="M72.93,41.34l-.17.2-.15.17-.19-.25a13.34,13.34,0,0,1-2.57-7.8,2.24,2.24,0,0,1,.05-.58c.12.13.24.27.35.41A13.49,13.49,0,0,1,72.93,41.34Z"/>
      <path class="cls-2" d="M76.48,33.92A13.56,13.56,0,0,1,73,41.71a13.54,13.54,0,0,1-2.75-8.05,13.56,13.56,0,0,1,3.43-7.79A13.57,13.57,0,0,1,76.48,33.92Z"/>
      <line class="cls-4" x1="73.04" y1="41.59" x2="73.75" y2="26.05"/>
      <line class="cls-4" y1="41.61" x2="81.69" y2="41.61"/>
      <circle class="cls-2" cx="17.95" cy="18.91" r="3.75"/>
      <circle class="cls-2" cx="11.59" cy="27.72" r="3.75"/>
      <circle class="cls-2" cx="3.75" cy="34.77" r="3.75"/>
      <line class="cls-4" x1="3.74" y1="41.54" x2="3.74" y2="34.74"/>
      <circle class="cls-5" cx="3.74" cy="34.74" r="0.96"/>
      <path class="cls-5" d="M3.74,38.93s-.13-3-2.95-2.61"/>
      <line class="cls-4" x1="17.96" y1="41.59" x2="17.96" y2="18.92"/>
      <circle class="cls-5" cx="17.96" cy="18.91" r="0.96"/>
      <circle class="cls-5" cx="15" cy="35.31" r="0.96"/>
      <path class="cls-2" d="M47.94,24.19A6.09,6.09,0,0,0,48,16.93a6.2,6.2,0,0,0-6.88-2.28,6.07,6.07,0,0,0-4.34,5.65c-.07,4.18-.05,8.36,0,12.54a1.73,1.73,0,0,0,1,1.2,14.36,14.36,0,0,0,11-.25l1.74,2c-5.79,3.39-15.9,2.69-21.63-5.35a17.19,17.19,0,0,1,3.4-23.33C39.11,1.68,49.5,2.3,55,8.48l-5.22,6.18c2.79,4.39,2.8,7.64,0,11.73l5.31,6.3-2,1.81c-.33-.36-.62-.64-.88-.94l-10-11.84c-.12-.15-.23-.3-.36-.44-.6-.7-.77-1.45,0-2.09s1.47-.39,2.07.33ZM51.19,8.8c-6.27-4.72-15.55-3-20.13,3.58C26.3,19.24,28.78,28.16,34,31.7c0-3.68-.08-7.28,0-10.88a11.27,11.27,0,0,1,.88-4.08c1.74-4,7.07-6.87,12.76-3.82Z"/>
      <path class="cls-5" d="M18,23.82s-.14-3-3-2.61"/>
      <path class="cls-5" d="M18,32.19s-.14-2.95-3-2.61"/>
      <path class="cls-4" d="M18,41.33s.61-5.75-3-6"/>
      <circle class="cls-5" cx="20.91" cy="35.31" r="0.96"/>
      <path class="cls-4" d="M18,41.33s-.62-5.75,2.95-6"/>
      <circle class="cls-5" cx="20.97" cy="26.29" r="0.96"/>
      <path class="cls-4" d="M18,32s-.6-5.43,3-5.71"/>
      <line class="cls-4" x1="11.59" y1="41.56" x2="11.59" y2="27.72"/>
      <circle class="cls-5" cx="11.59" cy="27.72" r="0.96"/>
      <path class="cls-5" d="M11.59,31.63S11.45,28.68,8.64,29"/>
      <path class="cls-4" d="M11.59,41.29s.62-5.68-2.95-5.95"/>
      <circle class="cls-5" cx="8.64" cy="35.34" r="0.96"/>
      <circle class="cls-2" cx="67.06" cy="18.96" r="1.58"/>
      <g>
        <path class="cls-7" d="M39.75,28.64s-.34,2.94-.11,3.16a11.54,11.54,0,0,0,1.11.84v-.7l-.45-.83.45-1.95Z"/>
        <g>
          <path class="cls-6" d="M45.74,33.54a12.12,12.12,0,0,1-4.61.85H38.32v-.53a17.32,17.32,0,0,1,4.48-.52A20.75,20.75,0,0,1,45.74,33.54Z"/>
          <rect class="cls-8" x="40.92" y="24.17" width="2.69" height="2.69"/>
          <path class="cls-7" d="M41.92,26.08s.22.78-.17.83a1.65,1.65,0,0,0-.67.28l.72.95h1.37L44,27.3s-1.11-.83-.89-1.33S41.92,26.08,41.92,26.08Z"/>
          <path class="cls-6" d="M41.92,26.08s.22.78-.17.83a1.65,1.65,0,0,0-.67.28l.72.95h1.37L44,27.3s-1.11-.83-.89-1.33S41.92,26.08,41.92,26.08Z"/>
          <path class="cls-7" d="M42.25,35.75l1.28.44.89.06-.06-.78-1.83-.53Z"/>
          <path class="cls-8" d="M43.89,35.58s0,.78.11.78a7.89,7.89,0,0,1,2.06,0c.44.17,1.11-.44.78-.78s-.88-.83-1.22-.72-1.73.39-1.73.39Z"/>
          <path class="cls-8" d="M39.8,34.86s-.66,1.33-.22,1.45a1.56,1.56,0,0,0,1-.12c.06,0,.84-.27,1-.16s.11-.45.11-.45Z"/>
          <path class="cls-8" d="M40.36,33s-1.06,1.44-.28,1.83,4.5.39,4.78,0,.39-1.61,0-1.72S40.36,33,40.36,33Z"/>
          <path class="cls-9" d="M40.36,33s-1.06,1.44-.28,1.83,4.5.39,4.78,0,.39-1.61,0-1.72S40.36,33,40.36,33Z"/>
          <circle class="cls-7" cx="42.36" cy="25.19" r="1.28"/>
          <path class="cls-10" d="M40.36,27.19l1.11-.25a1,1,0,0,0,1.17.72,1.42,1.42,0,0,0,1.11-.72s.67.28.72.28.78.27.78.44a18.93,18.93,0,0,1-.83,1.83l.11,3-4.11-.11.27-3Z"/>
          <path class="cls-7" d="M45.5,28.55s-.19,3-.19,3.14a1.24,1.24,0,0,1-.67.5c-.17,0-.28-.28-.28-.28l.39-.44-.28-2.28Z"/>
          <path class="cls-8" d="M45,32.8s2.5-1.39,2.56,0a2.14,2.14,0,0,1-1.28,2s-3.44,1-3.58.66-.42-1-.2-1,.5-.17.61-.06,1.5-.83,1.5-.83Z"/>
          <path class="cls-11" d="M46.17,32.64a2.8,2.8,0,0,0-.67.39,4.33,4.33,0,0,1-.89.44"/>
          <path class="cls-10" d="M40.69,27.3l-.33-.11s-1.22,1.28-.83,1.61.61.45.72.56a1.88,1.88,0,0,0,.66.16Z"/>
          <path class="cls-10" d="M44.75,27.58l.5.11a6.5,6.5,0,0,0,.5.94c.11.12-.17.06-.33.28s-.34.61-.67.61-.78-.58-.78-.58Z"/>
          <path class="cls-8" d="M40.47,33.3s-2.11-1.5-2.83-.38,3.11,2.61,3.66,2.83,1.06.45,1.06.45a10.34,10.34,0,0,0,.5-1.45c0-.22-.39-.22-.5-.22s-.61-.11-.72-.28A11.84,11.84,0,0,0,40.47,33.3Z"/>
          <path class="cls-11" d="M39.3,32.94a3.57,3.57,0,0,0,1.06.55,1.08,1.08,0,0,1,.67.39"/>
          <path class="cls-12" d="M40.09,30.83v2.35a.31.31,0,0,0,.3.29l4.38,0a.29.29,0,0,0,.29-.28l.13-2.3a.31.31,0,0,0-.28-.32H40.38a.31.31,0,0,0-.29.3h0Z"/>
          <path class="cls-8" d="M39.58,27.2a5.63,5.63,0,0,0,.36-.79,3.35,3.35,0,0,0,0-1A3.12,3.12,0,0,1,40,24.5a1.65,1.65,0,0,1,.45-.79,2.71,2.71,0,0,1,2.36-.34.89.89,0,0,1,.65.54.29.29,0,0,0,0,.13c0,.21.27.34.35.55s-.06.55-.08.84a1.71,1.71,0,0,0,.3.93,1.07,1.07,0,0,1,.19.55.67.67,0,0,1-.1.31,1.17,1.17,0,0,1-1,.56.57.57,0,0,1-.36-.09.52.52,0,0,1-.19-.56,2.63,2.63,0,0,1,.22-.59,1.34,1.34,0,0,0,.07-.18,1.25,1.25,0,1,0-1.7-.49h0a1.2,1.2,0,0,0,.87.61,1.77,1.77,0,0,1-.08.94,4.7,4.7,0,0,1-.39.69,1.12,1.12,0,0,1-.25.28.85.85,0,0,1-.22.09,2.27,2.27,0,0,1-1,.14,1,1,0,0,1-.76-.56A1.13,1.13,0,0,1,39.58,27.2Z"/>
          <ellipse class="cls-8" cx="42.3" cy="24.47" rx="1.36" ry="0.77"/>
        </g>
      </g>
      <circle class="cls-2" cx="2.81" cy="24.48" r="1.58"/>
      <path class="cls-13" d="M3.2,24.66a.35.35,0,0,0,0-.41.34.34,0,0,0-.39-.13.33.33,0,0,0-.25.32v.71a.11.11,0,0,0,.06.07.83.83,0,0,0,.62,0l.1.12a1,1,0,0,1-1-1.67,1,1,0,0,1,1.28.08l-.29.35a.51.51,0,0,1,0,.66l.3.36-.11.1h0l-.57-.67h0v-.11s.08,0,.12,0Zm.19-.87A.81.81,0,0,0,2.26,24h0a.8.8,0,0,0,.16,1.09v-.61a.46.46,0,0,1,0-.23A.5.5,0,0,1,3.11,24l.08,0Z"/>
      <path class="cls-13" d="M26.09,3.78A.62.62,0,0,0,26,2.93a.63.63,0,0,0-.53-.09.59.59,0,0,0-.43.55V4.62a.16.16,0,0,0,.09.12,1.35,1.35,0,0,0,1.08,0l.18.2a1.66,1.66,0,0,1-2.13-.53,1.68,1.68,0,0,1,2.56-2.16l-.51.61a.89.89,0,0,1,0,1.15l.52.62-.19.18-.09-.1c-.33-.38-.65-.77-1-1.16h0a.13.13,0,0,1,0-.2h0c.08-.06.15,0,.21,0Zm.32-1.52a1.42,1.42,0,0,0-2,.32l0,0a1.39,1.39,0,0,0,.3,1.89V3.44a1.14,1.14,0,0,1,.08-.4A.88.88,0,0,1,26,2.63l.08,0Z"/>
      <path class="cls-13" d="M67.53,19.22a.36.36,0,0,0,0-.44.38.38,0,0,0-.41-.14.38.38,0,0,0-.26.34v.76a.11.11,0,0,0,.06.07.84.84,0,0,0,.66,0l.11.12a1,1,0,0,1-1.11-1.72h0a1,1,0,0,1,1.37.08l-.32.37a.56.56,0,0,1,0,.71l.32.38-.12.11v-.06l-.6-.71h0a.08.08,0,0,1,0-.11h.14Zm.2-.93a.87.87,0,0,0-1.21.21h0a.85.85,0,0,0,.18,1.16V19a.54.54,0,0,1,.06-.25.53.53,0,0,1,.7-.26l.06,0Z"/>
    </g>
  </g>
</svg>
