<svg xmlns="http://www.w3.org/2000/svg" viewBox="0 0 119.17 78.39">
  <defs>
    <style>
      .cls-1 {
        fill: #1e266d;
      }

      .cls-2 {
        fill: #ffb8b8;
      }

      .cls-3 {
        fill: #e6e6e6;
      }

      .cls-4 {
        fill: #ff6c02;
      }

      .cls-5 {
        fill: #2f2e41;
      }

      .cls-6 {
        opacity: 0.2;
        isolation: isolate;
      }

      .cls-7 {
        fill: #3f3d56;
      }

      .cls-8 {
        fill: #a0616a;
      }

      .cls-9 {
        fill: #ccc;
      }
    </style>
  </defs>
  <g id="Layer_2" data-name="Layer 2">
    <g id="Layer_1-2" data-name="Layer 1">
      <path class="cls-1" d="M55.58,41.7A20.85,20.85,0,1,1,76.43,20.85,20.85,20.85,0,0,1,55.58,41.7Zm0-41.14a20.29,20.29,0,1,0,20.3,20.29h0A20.33,20.33,0,0,0,55.58.56Z"/>
      <path class="cls-2" d="M66.32,37.23a1.66,1.66,0,0,1,2.3-.39,1.82,1.82,0,0,1,.34.34l5.55-1.89-.77,3-5.15,1.33a1.65,1.65,0,0,1-2.27-2.34Z"/>
      <path class="cls-3" d="M109.86,78.15a40.41,40.41,0,0,1,3.34-12.73c.51-1.13,1.06-2.23,1.66-3.3a.24.24,0,0,0-.42-.25,40.9,40.9,0,0,0-4.55,12.56c-.23,1.24-.4,2.48-.52,3.72,0,.32.47.32.49,0Z"/>
      <circle class="cls-3" cx="116.06" cy="59.8" r="3.11"/>
      <path class="cls-3" d="M110.18,78.24A26.34,26.34,0,0,1,112.35,70a23.62,23.62,0,0,1,1.08-2.13.16.16,0,0,0-.07-.22.16.16,0,0,0-.21,0,26.65,26.65,0,0,0-3,8.15c-.15.8-.26,1.61-.34,2.42,0,.2.3.2.32,0Z"/>
      <circle class="cls-3" cx="114.2" cy="66.33" r="2.02"/>
      <path class="cls-3" d="M109.78,78.05a26,26,0,0,1-3.37-7.85c-.19-.78-.35-1.56-.47-2.35a.15.15,0,0,0-.18-.13.16.16,0,0,0-.14.17,26.58,26.58,0,0,0,2.69,8.24c.37.72.78,1.43,1.22,2.11.11.17.36,0,.25-.19Z"/>
      <circle class="cls-3" cx="105.62" cy="66.18" r="2.02"/>
      <path class="cls-2" d="M93.62,48.92a1.65,1.65,0,0,0-.47-2.28,1.23,1.23,0,0,0-.25-.14l.42-5.84-2.65,1.48v5.32a1.66,1.66,0,0,0,3,1.46Z"/>
      <path class="cls-4" d="M93,26.22l.73,18.58-3-.16-.66-19.5.62-.3a1.59,1.59,0,0,1,2.11.76A1.66,1.66,0,0,1,93,26.22Z"/>
      <polygon class="cls-2" points="83.84 76.4 81.83 76.4 80.87 68.65 83.84 68.65 83.84 76.4"/>
      <path class="cls-5" d="M80.39,75.83h3.88v2.44H78a2.43,2.43,0,0,1,2.43-2.44Z"/>
      <polygon class="cls-2" points="100.55 74 98.73 74.84 94.61 68.22 97.3 66.97 100.55 74"/>
      <path class="cls-5" d="M97.19,74.93l3.51-1.63h0l1,2.21h0L96,78.17h0A2.43,2.43,0,0,1,97.19,74.93Z"/>
      <path class="cls-5" d="M79.07,51.11l2.07,23.65,2.79-.33,2-21.6L97.36,73.45l3-.82s-9.49-28.4-10.23-30.78c-.81-2.6-7.21-3.6-7.21-3.6L82.63,38A19.89,19.89,0,0,0,79.07,51.11Z"/>
      <circle class="cls-2" cx="90.11" cy="18.77" r="4.02"/>
      <path class="cls-4" d="M92.63,26.53,89.84,41.11s-4.26-.85-5.77-1.87a19.58,19.58,0,0,1-1.6-1.2l-.26-.22c-.76-.65-1.22-1.13-1.22-1.13s.24-1.19.54-2.59c.33-1.58.73-3.43.93-4.19A14.16,14.16,0,0,1,85.67,25a3.56,3.56,0,0,1,3.52-1l2.18.57A1.71,1.71,0,0,1,92.63,26.53Z"/>
      <path class="cls-6" d="M85.87,32.9a17.13,17.13,0,0,1-3.66,4.92c-.76-.65-1.22-1.13-1.22-1.13s.24-1.19.54-2.59C83.33,33.14,85.19,32.54,85.87,32.9Z"/>
      <path class="cls-4" d="M88.54,27.18a2.72,2.72,0,0,0-.47-.19,2.07,2.07,0,0,0-1.89.44l-8.84,6.48-7,2.36,1.27,3,10.48-2.56,7-6.18a2.08,2.08,0,0,0-.47-3.36Z"/>
      <path class="cls-5" d="M90.34,22.76c.58-.86,1-2.05.4-2.87s-1.85-.68-2.81-1a3.18,3.18,0,0,1-1.85-3.45,4.09,4.09,0,0,1,2.69-3,5.86,5.86,0,0,1,4.16.22,6.39,6.39,0,0,1,3.57,3.62,4.88,4.88,0,0,1-.93,4.89,6.94,6.94,0,0,1-5.19,1.7"/>
      <path class="cls-5" d="M96.66,18a2.26,2.26,0,0,0,2.1,1.55,21.41,21.41,0,0,1,2.78.21,5.26,5.26,0,0,1,3.2,3.48,43.27,43.27,0,0,0,1.58,4.66c.75,1.46,2.2,2.75,3.83,2.61a4.22,4.22,0,0,1-7.93-.26c-.6-1.85.09-4.06-1-5.7a5.9,5.9,0,0,0-2.55-1.92,6.93,6.93,0,0,1-2.63-1.83,2.27,2.27,0,0,1,0-2.95"/>
      <path class="cls-7" d="M116.26,78.35H63.78a.19.19,0,0,1-.2-.19.2.2,0,0,1,.2-.2h52.48a.2.2,0,0,1,.2.2.19.19,0,0,1-.19.19Z"/>
      <path class="cls-7" d="M52.68,78.35H.2a.19.19,0,0,1-.2-.19A.2.2,0,0,1,.19,78H52.68a.2.2,0,0,1,.2.2A.19.19,0,0,1,52.68,78.35Z"/>
      <polygon class="cls-8" points="33.73 76.22 35.65 75.63 34.29 67.94 31.45 68.81 33.73 76.22"/>
      <path class="cls-5" d="M39.9,76.28l-6,1.85h0l-.71-2.33h0l3.7-1.14a2.45,2.45,0,0,1,3,1.62Z"/>
      <polygon class="cls-8" points="16.68 76.27 18.69 76.27 19.65 68.52 16.68 68.52 16.68 76.27"/>
      <path class="cls-5" d="M22.57,78.13H16.25V75.69h3.88a2.44,2.44,0,0,1,2.44,2.44Z"/>
      <path class="cls-8" d="M17.19,50.53a1.5,1.5,0,0,1-.13-2.12,1.14,1.14,0,0,1,.19-.19L18.8,28.61,22,29.4,19.44,48.53a1.52,1.52,0,0,1-2.25,2Z"/>
      <circle class="cls-8" cx="24.69" cy="17.14" r="4.02"/>
      <path class="cls-9" d="M19.19,29a3.59,3.59,0,0,1,0-4.38,4.46,4.46,0,0,1,3.68-1.47,7.7,7.7,0,0,1,6.9,4s2.07,3.8.86,7.25a27.21,27.21,0,0,0-1.2,3.8l-7.94-.69S22.87,34.05,19.19,29Z"/>
      <path class="cls-9" d="M16.74,32.43l1.71-5.59a2.68,2.68,0,0,1,3.34-1.78,3.38,3.38,0,0,1,.44.18h0a2.69,2.69,0,0,1,1.23,3.46l-2.18,4.95Z"/>
      <path class="cls-5" d="M29.29,37.3,36,72.16l-3.62,1-8.8-23-4,23.47-3.8.52s-1.66-31.05,5.7-36.76Z"/>
      <path class="cls-8" d="M38.34,33.68a1.77,1.77,0,0,0-.16.22l-8.12.39L28.5,29.52l-2.71,1.29,2.55,7.11,10-2a1.72,1.72,0,1,0,.11-2.43,1.06,1.06,0,0,0-.15.15Z"/>
      <path class="cls-9" d="M24.56,27.62a2.68,2.68,0,0,1,2.35-3,2.57,2.57,0,0,1,.48,0h0A2.69,2.69,0,0,1,29.9,27.3v5.41l-4.65.72Z"/>
      <path class="cls-5" d="M25.57,21.2a1.17,1.17,0,0,1-1-1.24,2,2,0,0,1,.92-1.49,9.71,9.71,0,0,1,1.6-.83,3.43,3.43,0,0,0,1.42-1.09,2.39,2.39,0,0,0,.17-2.22,3.5,3.5,0,0,0-1.53-1.67,4.64,4.64,0,0,0-3.34-.53A6.4,6.4,0,0,0,20.29,14l-.69,1.88c-.7.84-.15,2.1.28,3.11a4,4,0,0,0,2.39,2.13,5.89,5.89,0,0,0,3.25.1"/>
      <path class="cls-5" d="M21.89,15a2.43,2.43,0,0,0-1.34-1A4.22,4.22,0,0,0,15,17.76a12.87,12.87,0,0,0,.45,3.07,4.15,4.15,0,0,1-.33,3,4.51,4.51,0,0,1-1.84,1.44,3.56,3.56,0,0,1-1.88.52,1.37,1.37,0,0,1-1.3-1.24,5.55,5.55,0,0,0-.44,1.49,1.78,1.78,0,0,0,.46,1.44,2.54,2.54,0,0,0,2.15.37,9.44,9.44,0,0,0,4.52-1.73,4.51,4.51,0,0,0,1.79-4.29,10.33,10.33,0,0,0-.74-1.91,3.63,3.63,0,0,1-.35-2,2.41,2.41,0,0,1,1.23-1.63A3.17,3.17,0,0,1,20.78,16c.46.07,1,.19,1.31-.19a.75.75,0,0,0,0-.79,2.32,2.32,0,0,0-.59-.58"/>
      <path class="cls-4" d="M60.88,24.61a5.32,5.32,0,0,0,0-6.37,5.42,5.42,0,0,0-6-2,5.33,5.33,0,0,0-3.81,5q-.07,5.49,0,11A1.54,1.54,0,0,0,52,33.26,12.62,12.62,0,0,0,61.65,33l1.53,1.8c-5.08,3-14,2.36-19-4.7A15.08,15.08,0,0,1,47.14,9.62c6-4.76,15.11-4.24,20,1.2l-4.58,5.43C65,20.1,65,23,62.51,26.55l4.67,5.52-1.75,1.59c-.29-.31-.55-.56-.78-.83L55.88,22.44c-.11-.12-.21-.25-.31-.38-.54-.61-.68-1.27,0-1.84s1.29-.34,1.82.29C58.52,21.86,59.67,23.2,60.88,24.61Zm2.85-13.5C58.23,7,50.09,8.46,46.07,14.25c-4.18,6-2,13.84,2.58,17,0-3.23-.07-6.4,0-9.55a10,10,0,0,1,.77-3.58c1.53-3.52,6.21-6,11.2-3.36Z"/>
    </g>
  </g>
</svg>
