<svg xmlns="http://www.w3.org/2000/svg" xmlns:xlink="http://www.w3.org/1999/xlink" viewBox="0 0 29.21 31.22">
  <defs>
    <style>
      .cls-1, .cls-10 {
        opacity: 0.05;
      }

      .cls-2 {
        opacity: 0.5;
      }

      .cls-3 {
        fill: url(#linear-gradient);
      }

      .cls-4 {
        fill: url(#linear-gradient-2);
      }

      .cls-17, .cls-5 {
        fill: #535461;
      }

      .cls-6 {
        fill: #ff6c02;
      }

      .cls-7 {
        fill: #fff;
      }

      .cls-8 {
        fill: #fda57d;
      }

      .cls-9 {
        fill: #f55f44;
      }

      .cls-10, .cls-17, .cls-38, .cls-45 {
        isolation: isolate;
      }

      .cls-11 {
        fill: #5a2f32;
      }

      .cls-12 {
        fill: #ccc;
      }

      .cls-13 {
        fill: #f7931a;
      }

      .cls-14 {
        fill: #e6e6e6;
      }

      .cls-15 {
        fill: url(#linear-gradient-3);
      }

      .cls-16 {
        fill: url(#linear-gradient-4);
      }

      .cls-17 {
        opacity: 0.2;
      }

      .cls-18 {
        fill: url(#linear-gradient-5);
      }

      .cls-19 {
        fill: #6c63ff;
      }

      .cls-20 {
        fill: #4d8af0;
      }

      .cls-21 {
        fill: #e0e0e0;
      }

      .cls-22 {
        opacity: 0.7;
      }

      .cls-23 {
        fill: url(#linear-gradient-6);
      }

      .cls-24, .cls-45 {
        opacity: 0.1;
      }

      .cls-25 {
        fill: url(#linear-gradient-7);
      }

      .cls-26 {
        fill: url(#linear-gradient-8);
      }

      .cls-27 {
        fill: url(#linear-gradient-9);
      }

      .cls-28 {
        fill: url(#linear-gradient-10);
      }

      .cls-29 {
        fill: url(#linear-gradient-11);
      }

      .cls-30 {
        fill: url(#linear-gradient-12);
      }

      .cls-31 {
        fill: url(#linear-gradient-13);
      }

      .cls-32 {
        fill: url(#linear-gradient-14);
      }

      .cls-33 {
        fill: url(#linear-gradient-15);
      }

      .cls-34 {
        fill: url(#linear-gradient-16);
      }

      .cls-35 {
        fill: url(#linear-gradient-17);
      }

      .cls-36 {
        fill: url(#linear-gradient-18);
      }

      .cls-37 {
        fill: url(#linear-gradient-19);
      }

      .cls-39 {
        fill: url(#linear-gradient-20);
      }

      .cls-40 {
        fill: url(#linear-gradient-21);
      }

      .cls-41 {
        fill: url(#linear-gradient-22);
      }

      .cls-42 {
        fill: url(#linear-gradient-23);
      }

      .cls-43 {
        fill: url(#linear-gradient-24);
      }

      .cls-44 {
        fill: url(#linear-gradient-25);
      }

      .cls-46 {
        fill: #fdb797;
      }

      .cls-47 {
        fill: #814e4d;
      }
    </style>
    <linearGradient id="linear-gradient" x1="5.7" y1="73.89" x2="5.7" y2="74.91" gradientTransform="matrix(1, 0, 0, -1, 0, 79.73)" gradientUnits="userSpaceOnUse">
      <stop offset="0" stop-color="gray" stop-opacity="0.25"/>
      <stop offset="0.54" stop-color="gray" stop-opacity="0.12"/>
      <stop offset="1" stop-color="gray" stop-opacity="0.1"/>
    </linearGradient>
    <linearGradient id="linear-gradient-2" x1="268.86" y1="-13.25" x2="268.86" y2="-5.75" gradientTransform="matrix(1, 0, 0, -1, -259, -5.75)" xlink:href="#linear-gradient"/>
    <linearGradient id="linear-gradient-3" x1="269.91" y1="-10.16" x2="269.91" y2="-8.99" gradientTransform="matrix(1, 0, 0, -1, -259, -5.75)" xlink:href="#linear-gradient"/>
    <linearGradient id="linear-gradient-4" x1="270.95" y1="-10.68" x2="270.95" y2="-8.96" gradientTransform="matrix(1, 0, 0, -1, -259, -5.75)" xlink:href="#linear-gradient"/>
    <linearGradient id="linear-gradient-5" x1="270.24" y1="-18.84" x2="270.24" y2="-14.07" gradientTransform="matrix(1, 0, 0, -1, -259, -5.75)" xlink:href="#linear-gradient"/>
    <linearGradient id="linear-gradient-6" x1="24.32" y1="52.87" x2="25.88" y2="52.87" xlink:href="#linear-gradient"/>
    <linearGradient id="linear-gradient-7" x1="283.32" y1="-32.23" x2="284.88" y2="-32.23" gradientTransform="matrix(1, 0, 0, -1, -259, -5.75)" xlink:href="#linear-gradient"/>
    <linearGradient id="linear-gradient-8" x1="283.32" y1="-31.4" x2="284.88" y2="-31.4" gradientTransform="matrix(1, 0, 0, -1, -259, -5.75)" xlink:href="#linear-gradient"/>
    <linearGradient id="linear-gradient-9" x1="283.91" y1="-30.33" x2="284.28" y2="-30.33" gradientTransform="matrix(1, 0, 0, -1, -259, -5.75)" xlink:href="#linear-gradient"/>
    <linearGradient id="linear-gradient-10" x1="24.32" y1="50.8" x2="24.88" y2="50.8" xlink:href="#linear-gradient"/>
    <linearGradient id="linear-gradient-11" x1="25.32" y1="50.8" x2="25.88" y2="50.8" xlink:href="#linear-gradient"/>
    <linearGradient id="linear-gradient-12" x1="283.91" y1="-30.19" x2="284.28" y2="-30.19" gradientTransform="matrix(1, 0, 0, -1, -259, -5.75)" xlink:href="#linear-gradient"/>
    <linearGradient id="linear-gradient-13" x1="24.29" y1="56.13" x2="25.91" y2="56.13" xlink:href="#linear-gradient"/>
    <linearGradient id="linear-gradient-14" x1="24.32" y1="55.94" x2="25.88" y2="55.94" xlink:href="#linear-gradient"/>
    <linearGradient id="linear-gradient-15" x1="283.51" y1="-29" x2="284.87" y2="-29" gradientTransform="matrix(1, 0, 0, -1, -259, -5.75)" xlink:href="#linear-gradient"/>
    <linearGradient id="linear-gradient-16" x1="283.51" y1="-28.99" x2="284.87" y2="-28.99" gradientTransform="matrix(1, 0, 0, -1, -259, -5.75)" xlink:href="#linear-gradient"/>
    <linearGradient id="linear-gradient-17" x1="25.8" y1="55.94" x2="25.94" y2="55.94" xlink:href="#linear-gradient"/>
    <linearGradient id="linear-gradient-18" x1="24.26" y1="55.94" x2="24.4" y2="55.94" xlink:href="#linear-gradient"/>
    <linearGradient id="linear-gradient-19" x1="26.99" y1="56.94" x2="27.36" y2="56.94" xlink:href="#linear-gradient"/>
    <linearGradient id="linear-gradient-20" x1="283.34" y1="-29.99" x2="284.87" y2="-29.99" gradientTransform="matrix(1, 0, 0, -1, -259, -5.75)" xlink:href="#linear-gradient"/>
    <linearGradient id="linear-gradient-21" x1="284.51" y1="-29.79" x2="286.25" y2="-29.79" gradientTransform="matrix(1, 0, 0, -1, -259, -5.75)" xlink:href="#linear-gradient"/>
    <linearGradient id="linear-gradient-22" x1="22.83" y1="56.94" x2="23.21" y2="56.94" xlink:href="#linear-gradient"/>
    <linearGradient id="linear-gradient-23" x1="281.95" y1="-29.79" x2="283.69" y2="-29.79" gradientTransform="matrix(1, 0, 0, -1, -259, -5.75)" xlink:href="#linear-gradient"/>
    <linearGradient id="linear-gradient-24" x1="283.36" y1="-36.57" x2="283.85" y2="-36.57" gradientTransform="matrix(1, 0, 0, -1, -259, -5.75)" xlink:href="#linear-gradient"/>
    <linearGradient id="linear-gradient-25" x1="284.35" y1="-36.57" x2="284.84" y2="-36.57" gradientTransform="matrix(1, 0, 0, -1, -259, -5.75)" xlink:href="#linear-gradient"/>
  </defs>
  <g id="Layer_2" data-name="Layer 2">
    <g id="Layer_1-2" data-name="Layer 1">
      <g>
        <polygon points="5.49 4.97 5.96 4.79 6.08 5.06 6.14 5.7 6.04 5.78 5.49 4.97"/>
        <polygon points="7.79 6.24 7.25 6.55 7.81 7.39 7.95 7.29 8.03 6.63 7.79 6.24"/>
        <g class="cls-1">
          <path d="M8.92,2.34a1.9,1.9,0,0,0-.24.47l.08-.06A.86.86,0,0,1,8.92,2.34Z"/>
          <path d="M9.4,4.58l.06-1.25A23.35,23.35,0,0,1,6.19,4.94l-.09.15A23.93,23.93,0,0,0,9.37,3.48L9.31,4.66Z"/>
        </g>
        <g class="cls-2">
          <polygon class="cls-3" points="5.93 5.84 6.04 5.76 5.98 5.1 5.85 4.82 5.37 5.01 5.93 5.84"/>
          <path class="cls-4" d="M13.34.08a.62.62,0,0,0-.67,0,1,1,0,0,0-.31.41l0,.11h0l-.2.15L12.05.65s-.71-1.26-2.8,1.2h0s-.18.22-.34.46l0,0h0v0h0l0,0v0l0,0v.08l0,0h0v.06h0v0h0v0h0v0h0a.28.28,0,0,0,0,.09L5.85,4.82,6,5.13A23.56,23.56,0,0,0,9.36,3.47l0,1.21h0v.08A10.44,10.44,0,0,0,7.73,6.32l-.56.32.59.86.13-.1L8,6.72l2.29-1.83a3.91,3.91,0,0,0,.44-1.46l.09.36s.2.56.34.59.14-.44,0-.57a4,4,0,0,1-.06-1.05l0-.18.36-.26h0l0,.11h.07v0h0l0,.87.26,1s.19.56.34.58.14-.44,0-.57a3.85,3.85,0,0,1-.05-1l.1-.76h0v0l.21,0s.21-.74-.15-1.06l-.06-.14.13-.09h0l0,0a.61.61,0,0,0,.85,0,.4.4,0,0,0,.28-.08l0,0A.44.44,0,0,0,13.85,1,1,1,0,0,0,13.34.08Z"/>
        </g>
        <path class="cls-5" d="M9.25,1.9s-.61.74-.58,1L6,4.79l.14.3A23.93,23.93,0,0,0,9.37,3.48L9.31,4.73A10.27,10.27,0,0,0,7.79,6.24L8,6.63l2.22-1.77s.66-1.21.34-1.86Z"/>
        <path class="cls-6" d="M28.77,20.15A14.6,14.6,0,1,1,18.13,2.45,14.6,14.6,0,0,1,28.77,20.15Z"/>
        <path class="cls-7" d="M17.74,19.06a3.69,3.69,0,0,0,0-4.39,3.76,3.76,0,0,0-4.16-1.38A3.66,3.66,0,0,0,11,16.71c0,2.53,0,5.05,0,7.58a1.06,1.06,0,0,0,.6.73,8.72,8.72,0,0,0,6.67-.15l1.05,1.24A10.22,10.22,0,0,1,6.24,22.87a10.39,10.39,0,0,1,2-14.14C12.4,5.45,18.68,5.81,22,9.56L18.87,13.3c1.69,2.65,1.7,4.62,0,7.09l3.22,3.81-1.21,1.1-.53-.57q-3-3.59-6.05-7.16l-.21-.27c-.37-.42-.47-.87,0-1.26s.89-.24,1.26.2C16.11,17.17,16.91,18.09,17.74,19.06Zm2-9.31A8.66,8.66,0,0,0,9.31,23.61c0-2.23-.05-4.41,0-6.59a6.7,6.7,0,0,1,.53-2.46,5.41,5.41,0,0,1,7.72-2.32Z"/>
        <path class="cls-8" d="M11.54,2l.07,1.32.25,1s.19.55.33.57.13-.43,0-.56a4.06,4.06,0,0,1-.05-1l.15-1.12Z"/>
        <path class="cls-9" d="M11.46,2.24l0,.22,1,.08s.2-.71-.15-1Z"/>
        <path class="cls-9" d="M12.34,1.52,12,.74S11.29-.49,9.24,1.92L10.59,3l.87-.63Z"/>
        <path class="cls-8" d="M12.63.44,13,.89h0l-.71.52a.23.23,0,0,1-.32,0h0l-.06-.08A.24.24,0,0,1,11.92,1h0l.71-.52Z"/>
        <path class="cls-10" d="M12.26.72a.58.58,0,0,0,.15.57L12.75,1,12.42.6Z"/>
        <circle class="cls-8" cx="12.85" cy="0.85" r="0.59" transform="translate(1.96 7.72) rotate(-36.01)"/>
        <path class="cls-10" d="M12.58.5l-.34.23,0-.11s.28-.73.93-.41a1,1,0,0,1,.5.85.86.86,0,0,1-.18.14A.4.4,0,0,1,13,1.13c-.12-.14-.32-.42-.28-.58h0c0-.06-.08-.09-.13,0Z"/>
        <path class="cls-11" d="M12.6.48l-.34.23L12.31.6s.28-.73.93-.41a.93.93,0,0,1,.49.85l-.17.14A.42.42,0,0,1,13,1.11C12.9,1,12.7.69,12.74.53h0c0-.06-.08-.09-.14,0Z"/>
        <ellipse class="cls-8" cx="12.68" cy="0.47" rx="0.13" ry="0.07" transform="translate(2.15 7.56) rotate(-36.07)"/>
        <polygon class="cls-10" points="11.35 2.34 11.51 2.21 11.51 2.42 11.47 2.34 11.35 2.34"/>
        <polygon class="cls-10" points="11.56 2.47 11.57 2.5 12.28 2.56 12.29 2.53 11.56 2.47"/>
        <path class="cls-8" d="M10.45,1.52l.07,1.32.25,1s.19.54.33.57.14-.43,0-.56a4.06,4.06,0,0,1-.05-1l.16-1.12Z"/>
        <rect class="cls-12" x="16.21" y="11.6" width="0.07" height="0.07"/>
        <path class="cls-5" d="M16.16,11.71h.18a.09.09,0,0,1,.1.1h0v.62h-.38v-.62A.09.09,0,0,1,16.16,11.71Z"/>
        <rect class="cls-13" x="16.13" y="11.66" width="0.22" height="0.05"/>
        <rect class="cls-13" x="16.06" y="11.99" width="0.39" height="0.15"/>
        <path class="cls-14" d="M16.28,11.61v0h0A0,0,0,0,1,16.28,11.61Z"/>
        <polygon class="cls-10" points="10.46 1.5 10.46 1.58 11.24 1.72 11.25 1.65 10.46 1.5"/>
        <polygon class="cls-9" points="10.63 0.83 10.45 1.52 11.25 1.67 11.46 0.8 10.63 0.83"/>
        <g class="cls-2">
          <path class="cls-15" d="M10.61,3.24l.15.59s.2.56.34.58.15-.43.05-.57a1.46,1.46,0,0,1-.07-.6Z"/>
        </g>
        <path class="cls-8" d="M10.62,3.24l.15.58s.19.54.33.56.14-.42,0-.55a1.69,1.69,0,0,1-.06-.59Z"/>
        <g class="cls-2">
          <path class="cls-16" d="M12.21,3.21h-.63v.16l.26,1s.21.56.35.58.15-.43,0-.57a3.85,3.85,0,0,1-.05-1Z"/>
        </g>
        <path class="cls-8" d="M12.19,3.21H11.6v.16l.25,1s.19.54.33.56.13-.42,0-.55a4.16,4.16,0,0,1-.05-1Z"/>
        <polygon class="cls-17" points="16.27 11.61 17.34 11.39 17.39 11.9 16.27 11.65 16.27 11.61"/>
        <g class="cls-2">
          <path class="cls-18" d="M14.66,11.76l0,0h0l.94.4,1.2-1.42s.18-.21,0-.34-.36.22-.36.22l-.92,1-.78-.39v-.09L14,10.74l0-.08v0l0,0,0,0,.11-.13a.64.64,0,0,0,.82-.39.36.36,0,0,0,0-.11h.17a.45.45,0,0,0,.33-.27l0,0a.08.08,0,0,1,0-.05c0,.06-.25,0-.29-.05a.47.47,0,0,1-.21-.23.61.61,0,0,0-.53-.3,1.21,1.21,0,0,0-.5.07.6.6,0,0,0-.35.35.45.45,0,0,0,0,.16.44.44,0,0,0,.14.33l0,0s0,0,0,.06l0,0h0l-.2.22h0l-2.14.32h0a1.57,1.57,0,0,0-1.2,0,4.14,4.14,0,0,1-1.35,0,6.18,6.18,0,0,1-.63-1.94L8,8.32l-1.25.29s.58.13.67.29.24,1.14.27,1.65c-.74-.11-1.35-.25-1.35-.25l-.45-.16-.32,1.12a1.37,1.37,0,0,1,.67-.41A6.12,6.12,0,0,0,9,11.46a4,4,0,0,1,1.28.19,7.93,7.93,0,0,0,1,.09v.36a10.25,10.25,0,0,0,2.18-.34,1.57,1.57,0,0,0,.14.32l.16-.08.88,1.09,1.72-.71a.22.22,0,0,0,.13-.32c-.13-.22-.42,0-.42,0l-1.27.45-.54-.74h0l0,0,.11-.06v0l.3.23Z"/>
        </g>
        <polygon class="cls-8" points="13.62 10.85 13.22 10.48 13.88 9.78 14.27 10.14 13.62 10.85"/>
        <path class="cls-10" d="M13.84,9.81l-.28.31a.6.6,0,0,0,.38.38l.3-.33Z"/>
        <path class="cls-8" d="M13.93,11.46l1.58.68,1.17-1.38a.22.22,0,0,0,0-.34c-.21-.13-.34.22-.34.22l-.9,1L14.25,11Z"/>
        <polygon class="cls-19" points="13.85 10.67 14.65 11.14 14.54 11.87 13.78 11.26 13.85 10.67"/>
        <circle class="cls-8" cx="14.17" cy="9.88" r="0.62"/>
        <path class="cls-19" d="M13.66,10.42l-.31-.09-2.08.31v1.42s2.53-.11,2.81-.77l-.18-.65Z"/>
        <polygon class="cls-10" points="13.81 11.28 14.54 11.87 14.57 11.62 13.85 10.92 13.81 11.28"/>
        <path class="cls-20" d="M11.28,10.66s-.27-.25-1.17,0a13,13,0,0,1-3.64-.35l-.09.53a6,6,0,0,0,2.7.6,3.72,3.72,0,0,1,1.24.18,7.79,7.79,0,0,0,1,.09Z"/>
        <path class="cls-5" d="M6.47,10.32,6,10.16l-.31,1.09a1.33,1.33,0,0,1,.65-.41Z"/>
        <path class="cls-20" d="M7.53,9l.65-.16s.31,1.87.78,2H7.81S7.71,9,7.53,9Z"/>
        <path class="cls-5" d="M8.18,8.79l-.09-.4-1.21.28s.55.12.65.28Z"/>
        <path class="cls-10" d="M14.27,9.16a1,1,0,0,0-.49.06.6.6,0,0,0-.34.34.41.41,0,0,0,.11.45.16.16,0,0,0,.11.05c.06,0,.12,0,.17-.08a1.27,1.27,0,0,1,.31-.2.32.32,0,0,1,.3,0,.52.52,0,0,1,.11.1.44.44,0,0,0,.62,0,.71.71,0,0,0,.1-.14s-.25,0-.28,0a.49.49,0,0,1-.21-.24A.58.58,0,0,0,14.27,9.16Z"/>
        <path d="M14.27,9.13a1,1,0,0,0-.49.06.6.6,0,0,0-.34.34.42.42,0,0,0,.11.45.16.16,0,0,0,.11,0c.06,0,.12,0,.17-.08a1.27,1.27,0,0,1,.31-.2.32.32,0,0,1,.3,0,.52.52,0,0,1,.11.1.44.44,0,0,0,.62,0,.56.56,0,0,0,.1-.15c0,.06-.25,0-.28,0a.49.49,0,0,1-.21-.24A.58.58,0,0,0,14.27,9.13Z"/>
        <ellipse class="cls-8" cx="13.97" cy="9.82" rx="0.09" ry="0.05" transform="translate(1.19 21.14) rotate(-76.65)"/>
        <polygon class="cls-10" points="13.69 11.97 13.71 11.99 14.18 11.77 14.15 11.74 13.69 11.97"/>
        <polygon class="cls-10" points="14.64 11.22 14.56 11.73 14.59 11.75 14.65 11.22 14.64 11.22"/>
        <rect class="cls-21" x="11.81" y="9.91" width="0.37" height="2.52"/>
        <rect class="cls-21" x="9.64" y="3.93" width="2.52" height="0.37" transform="translate(3.53 13.14) rotate(-71.43)"/>
        <polygon class="cls-21" points="12.06 10.19 11.94 10.19 11.94 4.11 12.06 4.11 12.06 10.19"/>
        <path class="cls-8" d="M13.46,11.68,14.54,13l1.68-.68s.25-.1.12-.31-.4,0-.4,0l-1.24.43-.76-1.05Z"/>
        <path class="cls-19" d="M13,10.58s.46,1.43.52,1.46l.73-.36s-.2-1-.43-1.11S13,10.46,13,10.58Z"/>
        <path class="cls-10" d="M13.14,11s0,.55.13.64"/>
        <polygon class="cls-21" points="11.94 4.11 11.38 3.29 11.44 3.11 12.06 4.11 11.94 4.11"/>
        <rect x="14.55" y="10.13" width="0.25" height="0.1" transform="translate(-1.93 16.77) rotate(-56.4)"/>
        <rect x="14.33" y="9.56" width="0.05" height="0.72" transform="translate(-1.85 16.38) rotate(-56.38)"/>
        <g class="cls-22">
          <rect class="cls-23" x="24.32" y="26.29" width="1.56" height="1.15"/>
          <g class="cls-24">
            <path class="cls-25" d="M24.32,26.59s.58.07.78.07.78-.07.78-.07v-.28H24.32Z"/>
          </g>
          <path class="cls-26" d="M25.88,26.58s-.58.06-.78.06-.78-.06-.78-.06V25.44a.77.77,0,0,1,.78-.77h0a.77.77,0,0,1,.78.77Z"/>
          <path class="cls-27" d="M25.1,24.89h0a.2.2,0,0,1-.19-.19h0v-.42h.37v.42A.19.19,0,0,1,25.1,24.89Z"/>
          <rect class="cls-28" x="24.32" y="27.03" width="0.56" height="3.79"/>
          <rect class="cls-29" x="25.32" y="27.03" width="0.56" height="3.79"/>
          <g class="cls-24">
            <path class="cls-30" d="M24.91,24.56a.77.77,0,0,0,.37,0v-.27h-.37Z"/>
          </g>
          <circle class="cls-31" cx="25.1" cy="23.6" r="0.81"/>
          <circle class="cls-32" cx="25.1" cy="23.79" r="0.78"/>
          <g class="cls-24">
            <path class="cls-33" d="M24.63,23.4a.33.33,0,0,0,.14,0,1.2,1.2,0,0,0,.59-.07.26.26,0,0,0,.18.16,1.07,1.07,0,0,0,.25,0h.05s0-.08,0-.12l-.11-.2a.57.57,0,0,0-.11-.16.52.52,0,0,0-.23-.1,1.26,1.26,0,0,0-.58,0C24.61,23,24.35,23.23,24.63,23.4Z"/>
          </g>
          <path class="cls-34" d="M24.63,23.38a.33.33,0,0,0,.14,0,1.2,1.2,0,0,0,.59-.06.27.27,0,0,0,.18.15.54.54,0,0,0,.25,0h.05s0-.08,0-.12l-.11-.2a.57.57,0,0,0-.11-.16.67.67,0,0,0-.23-.1,1.42,1.42,0,0,0-.58,0C24.61,23,24.35,23.21,24.63,23.38Z"/>
          <ellipse class="cls-35" cx="25.87" cy="23.79" rx="0.07" ry="0.13"/>
          <ellipse class="cls-36" cx="24.33" cy="23.79" rx="0.07" ry="0.13"/>
          <circle class="cls-37" cx="27.18" cy="22.79" r="0.19"/>
          <g class="cls-38">
            <path d="M24.83,25.48a.34.34,0,0,1,0-.11.21.21,0,0,1,0-.06l.07,0H25l0,0,0,.05v.09a.31.31,0,0,1,0,.1.09.09,0,0,1,0,.06l-.06,0a.1.1,0,0,1-.09,0A.26.26,0,0,1,24.83,25.48Zm0,0a.29.29,0,0,0,0,.12s0,0,.06,0,0,0,.05,0a.2.2,0,0,0,0-.11.29.29,0,0,0,0-.12.07.07,0,0,0-.06,0,.05.05,0,0,0,0,0A.23.23,0,0,0,24.87,25.48Z"/>
            <path d="M25.11,25.48a.34.34,0,0,1,0-.11.21.21,0,0,1,0-.06l.07,0h.05s0,0,0,0l0,.05s0,.05,0,.09a.3.3,0,0,1,0,.1.09.09,0,0,1,0,.06l-.06,0a.11.11,0,0,1-.09,0A.26.26,0,0,1,25.11,25.48Zm0,0a.17.17,0,0,0,0,.12s0,0,.05,0,0,0,.05,0a.2.2,0,0,0,0-.11.29.29,0,0,0,0-.12s0,0-.05,0l-.05,0A.23.23,0,0,0,25.15,25.48Z"/>
          </g>
          <path class="cls-39" d="M25.12,24.09a.81.81,0,0,1-.78-.18l.07.24a.78.78,0,0,0,1.05.33.8.8,0,0,0,.41-.57C25.79,24,25.21,24.23,25.12,24.09Zm0,.2c-.09,0-.15-.06-.15-.1s.07,0,.15,0,.15,0,.15,0-.07.1-.15.1Z"/>
          <path class="cls-40" d="M25.51,24.79a3.87,3.87,0,0,0,1.47-2l.27.17s-.45,1.9-1.58,2.33Z"/>
          <circle class="cls-41" cx="23.02" cy="22.79" r="0.19"/>
          <path class="cls-42" d="M24.69,24.79a3.87,3.87,0,0,1-1.47-2L23,23s.45,1.89,1.58,2.33Z"/>
          <path class="cls-43" d="M24.85,31h-.49v0a.23.23,0,0,1,.24-.24h0a.24.24,0,0,1,.25.24Z"/>
          <path class="cls-44" d="M25.84,31h-.49v0a.24.24,0,0,1,.25-.24h0a.24.24,0,0,1,.24.24Z"/>
        </g>
        <rect class="cls-20" x="24.34" y="26.3" width="1.51" height="1.12"/>
        <path class="cls-45" d="M24.34,26.6s.57.06.76.06.75-.06.75-.06v-.28H24.34Z"/>
        <path class="cls-19" d="M25.85,26.58s-.56.07-.75.07-.76-.07-.76-.07v-1.1a.76.76,0,0,1,.76-.75h0a.75.75,0,0,1,.75.75h0Z"/>
        <path class="cls-46" d="M24.92,24.35h.36v.41a.18.18,0,0,1-.18.18h0a.18.18,0,0,1-.18-.18v-.41Z"/>
        <rect class="cls-20" x="24.34" y="27.03" width="0.54" height="3.68"/>
        <rect class="cls-20" x="25.31" y="27.03" width="0.54" height="3.68"/>
        <path class="cls-45" d="M24.92,24.62a.73.73,0,0,0,.36,0v-.25h-.36Z"/>
        <circle class="cls-47" cx="25.1" cy="23.69" r="0.79"/>
        <circle class="cls-46" cx="25.1" cy="23.87" r="0.75"/>
        <path class="cls-45" d="M24.64,23.5l.14,0a1.23,1.23,0,0,0,.57-.07.25.25,0,0,0,.18.15.66.66,0,0,0,.24,0h.05s0-.08,0-.12l-.1-.19a.47.47,0,0,0-.34-.25,1.18,1.18,0,0,0-.56,0C24.62,23.15,24.37,23.33,24.64,23.5Z"/>
        <path class="cls-47" d="M24.64,23.48a.33.33,0,0,0,.14,0,1.23,1.23,0,0,0,.57-.06.27.27,0,0,0,.18.15,1,1,0,0,0,.24,0h.05s0-.09,0-.12l-.1-.19a.48.48,0,0,0-.12-.16.43.43,0,0,0-.22-.09,1.18,1.18,0,0,0-.56,0C24.62,23.14,24.37,23.32,24.64,23.48Z"/>
        <ellipse class="cls-46" cx="25.85" cy="23.87" rx="0.07" ry="0.12"/>
        <ellipse class="cls-46" cx="24.35" cy="23.87" rx="0.07" ry="0.12"/>
        <path class="cls-47" d="M25.12,24.17a.77.77,0,0,1-.76-.18l.07.24a.75.75,0,0,0,1,.31.76.76,0,0,0,.4-.55C25.77,24,25.21,24.31,25.12,24.17Zm0,.2a.16.16,0,0,1-.15-.1s.07,0,.15,0,.15,0,.15,0a.16.16,0,0,1-.15.1Z"/>
        <path class="cls-19" d="M25.5,24.84a3.71,3.71,0,0,0,1.42-1.93l.26.16s-.43,1.84-1.52,2.27Z"/>
        <circle class="cls-46" cx="23.08" cy="22.91" r="0.18"/>
        <path class="cls-19" d="M24.7,24.84a3.71,3.71,0,0,1-1.42-1.93l-.27.16s.44,1.84,1.53,2.27Z"/>
      </g>
    </g>
  </g>
</svg>
