<svg xmlns="http://www.w3.org/2000/svg" viewBox="0 0 136.46 94.36">
  <defs>
    <style>
      .cls-1 {
        fill: none;
      }

      .cls-2 {
        fill: #2f2e41;
      }

      .cls-3 {
        fill: #ffb9b9;
      }

      .cls-4 {
        fill: #e6e6e6;
      }

      .cls-5 {
        fill: #1e266d;
      }

      .cls-6 {
        fill: #fff;
      }

      .cls-7 {
        fill: #ff6c02;
      }

      .cls-8 {
        fill: #3f3d56;
      }
    </style>
  </defs>
  <g id="Layer_2" data-name="Layer 2">
    <g id="Layer_1-2" data-name="Layer 1">
      <rect class="cls-1" width="136.46" height="94.36"/>
      <path class="cls-2" d="M12.33,41.21c-2.52,2.06,1.61,20.21,1.61,20.21s.92,27.67,2.87,28.93,6.32-.11,8-.34.23-17.34-2.3-23.66S22,50.85,22,50.85l13.66,2.64s-8.26,7-7.92,8.5,9.19,6.55,10.79,6.78S43.22,59.58,46,53.15,27.15,42.59,27.15,42.59l-3-5.63S14.86,39.14,12.33,41.21Z"/>
      <path class="cls-2" d="M19.19,90.83s-.83,2.92,0,2.92,2.36.83,4.72.55,1.67-3.19,0-3.61-1.25-3.75-1.25-3.75c-.55-1.11-3.19.28-3.19.28Z"/>
      <path class="cls-2" d="M31,67.64s-1.43,2.67-.61,2.85S32.54,71.8,34.9,72s2.31-2.77.77-3.53-.44-3.93-.44-3.93c-.3-1.2-3.18-.4-3.18-.4Z"/>
      <path class="cls-3" d="M13.88,16.35c.23.46-.8,6.2-.8,6.2l.92,1.6s5.28-2.06,4.48-2.41-.69-4.59-.69-4.59S13.65,15.89,13.88,16.35Z"/>
      <circle class="cls-2" cx="15.87" cy="11.08" r="7.04"/>
      <circle class="cls-2" cx="15.39" cy="4.48" r="2.91"/>
      <path class="cls-2" d="M16.66,5.8l.3,0A2.91,2.91,0,1,0,17,0h-.37a2.91,2.91,0,0,1,0,5.79Z"/>
      <circle class="cls-3" cx="16.06" cy="14.51" r="4.82"/>
      <path class="cls-4" d="M9.12,21.92c-1.5.34-4,4-4,4l4,4S12,40.75,12.33,41.21c2.26,3,12.4-3.68,12.4-3.68a26.18,26.18,0,0,1-.17-4.88c.22-1.54-.86-4.65-.86-4.65s3.79-1.61,3-3.21-5.75-5.29-7.81-4-6.2,0-6.2,0A35.12,35.12,0,0,1,9.12,21.92Z"/>
      <path class="cls-3" d="M38.46,45.05s6.54,5.63,8.15,4.48-6.2-5.17-6.2-5.17Z"/>
      <path class="cls-3" d="M9.06,43.1c.92,1,5.28-1.61,4.72-2.78s-4,1.17-4,1.17S8.14,42.07,9.06,43.1Z"/>
      <path class="cls-4" d="M9.12,27.54l-4.83,9s5.52,4.59,6.21,4.71-1.38,3.1-1.38,3.1S2.92,40,.51,37.76,5.1,25.94,5.1,25.94l2.07-1.27Z"/>
      <path class="cls-4" d="M23.13,27.2l5.62,8.72S37.36,45.57,38.51,46,41,44.3,41,44.3L30.7,31.79l-3.9-7-1.49-.57Z"/>
      <ellipse class="cls-2" cx="15.87" cy="8.78" rx="4.86" ry="2.91"/>
      <path class="cls-5" d="M29.49,71.64a.6.6,0,0,0-.6.6V92.71a.6.6,0,0,0,.6.6H99.3a.6.6,0,0,0,.6-.6V72.24a.6.6,0,0,0-.6-.6Z"/>
      <path class="cls-6" d="M30.4,91.81h68V73.14h-68Z"/>
      <path class="cls-7" d="M89.81,87.94a1,1,0,1,0,0,2h4a1,1,0,1,0,0-2h-4Z"/>
      <rect x="48.87" y="86.01" width="45.91" height="0.26"/>
      <circle class="cls-7" cx="39.28" cy="82.47" r="5.79"/>
      <path class="cls-8" d="M49,84.55l-.15-.22,4.77-3.18,3.27,1.57,4.71-3,9.36,4L78.36,80,85.6,83l9.1-8.06.17.2-9.22,8.16-7.28-3L70.92,84l-9.35-4-4.71,3-3.27-1.57Z"/>
      <path class="cls-5" d="M49.72,88.07a.85.85,0,0,0,0,1.7h8.9a.85.85,0,0,0,0-1.7Z"/>
      <path class="cls-5" d="M38.58,6.06a.6.6,0,0,0-.6.6V27.13a.6.6,0,0,0,.6.6h69.81a.6.6,0,0,0,.6-.6V6.66a.6.6,0,0,0-.6-.6Z"/>
      <path class="cls-6" d="M39.49,26.23h68V7.57h-68Z"/>
      <path class="cls-7" d="M98.9,22.36a1,1,0,0,0,0,2h4a1,1,0,0,0,0-2h-4Z"/>
      <rect x="57.96" y="20.43" width="45.91" height="0.26"/>
      <circle class="cls-7" cx="48.37" cy="16.9" r="5.79"/>
      <path class="cls-8" d="M58,19l-.15-.22,4.77-3.18,3.27,1.57,4.71-3,.06,0,9.3,4,7.46-3.67,7.23,2.94,9.1-8.06.17.2-9.21,8.17-7.28-3L80,18.42l-9.35-4-4.71,3-3.27-1.57Z"/>
      <path class="cls-5" d="M58.81,22.5a.85.85,0,0,0,0,1.7h8.9a.85.85,0,0,0,0-1.7Z"/>
      <path class="cls-6" d="M50.7,16.22c.11-.72-.45-1.11-1.2-1.37l.24-1-.59-.15-.24.95-.48-.11.24-1-.6-.15-.24,1-.39-.09h0l-.82-.21-.16.64s.44.1.44.11a.31.31,0,0,1,.27.35l-.27,1.11.06,0h-.07l-.39,1.57a.21.21,0,0,1-.27.14h0L45.79,18l-.29.68.78.2.42.11-.25,1,.6.15.25-1,.47.12-.24,1,.6.15.24-1c1,.19,1.79.11,2.11-.81a1,1,0,0,0-.55-1.45.94.94,0,0,0,.76-.88Zm-1.37,1.92c-.18.74-1.43.34-1.84.24l.33-1.32c.41.1,1.71.3,1.51,1.08Zm.19-1.93c-.17.68-1.21.33-1.55.25l.3-1.19c.34.08,1.42.24,1.25.94Z"/>
      <path class="cls-5" d="M66.05,38.85a.6.6,0,0,0-.6.6V59.92a.6.6,0,0,0,.6.6h69.81a.6.6,0,0,0,.6-.6V39.45a.6.6,0,0,0-.6-.6Z"/>
      <path class="cls-6" d="M67,59h68V40.35H67Z"/>
      <path class="cls-7" d="M126.37,55.15a1,1,0,0,0,0,2h4a1,1,0,0,0,1-1,1,1,0,0,0-1-1h-4Z"/>
      <rect x="85.43" y="53.22" width="45.91" height="0.26"/>
      <circle class="cls-7" cx="75.83" cy="49.69" r="5.79"/>
      <path class="cls-8" d="M85.5,51.76l-.14-.22,4.77-3.18,3.27,1.57,4.7-3,.07,0,9.29,4,7.46-3.67,7.24,2.94,9.09-8.06.18.2-9.22,8.16-7.28-3-7.46,3.66-9.34-4-4.71,3-3.27-1.57Z"/>
      <path class="cls-5" d="M86.28,55.28a.86.86,0,0,0-.84.87.84.84,0,0,0,.84.83h8.89a.85.85,0,0,0,0-1.7H86.28Z"/>
      <path class="cls-6" d="M75.83,53.5l2.34-3.3-2.34,1.39h0L73.49,50.2Z"/>
      <path class="cls-6" d="M75.83,51.14h0l2.34-1.38-2.34-3.89h0l-2.34,3.89Z"/>
      <path class="cls-6" d="M40.68,83.43a1.41,1.41,0,0,0,0-1.69,1.45,1.45,0,0,0-1.6-.53,1.4,1.4,0,0,0-1,1.32q0,1.45,0,2.91a.4.4,0,0,0,.23.28,3.37,3.37,0,0,0,2.57,0l.4.47a3.92,3.92,0,0,1-5-1.24A4,4,0,0,1,37,79.46a4,4,0,0,1,5.29.32l-1.21,1.43a2.14,2.14,0,0,1,0,2.73l1.24,1.47-.46.42-.21-.22-2.32-2.75-.09-.11c-.14-.16-.18-.33,0-.48s.34-.09.48.07Zm.76-3.58a3.33,3.33,0,0,0-4,5.33c0-.86,0-1.7,0-2.53a2.78,2.78,0,0,1,.2-1,2.08,2.08,0,0,1,3-.89Z"/>
    </g>
  </g>
</svg>
