<svg xmlns="http://www.w3.org/2000/svg" viewBox="0 0 101.41 68.59">
  <defs>
    <style>
      .cls-1 {
        fill: #3f3d56;
      }

      .cls-2 {
        fill: #ff6c02;
      }

      .cls-3 {
        fill: #fff;
      }
    </style>
  </defs>
  <g id="Layer_2" data-name="Layer 2">
    <g id="Layer_1-2" data-name="Layer 1">
      <rect class="cls-1" x="11.7" y="15.74" width="0.27" height="14.39"/>
      <rect class="cls-1" x="11.7" y="34.41" width="0.27" height="12.66"/>
      <rect class="cls-1" x="11.3" y="49.09" width="20.85" height="0.27"/>
      <rect class="cls-1" x="2.42" y="52.72" width="0.27" height="11.43"/>
      <rect class="cls-1" x="4.84" y="66.17" width="31.61" height="0.27"/>
      <rect class="cls-1" x="62.54" y="6.59" width="0.27" height="13.58"/>
      <rect class="cls-1" x="40.75" y="22.33" width="19.78" height="0.27"/>
      <rect class="cls-1" x="38.47" y="24.48" width="0.27" height="18.16"/>
      <path class="cls-1" d="M11.84,34.57a2.29,2.29,0,1,1,2.28-2.29A2.29,2.29,0,0,1,11.84,34.57Zm0-4.31a2,2,0,1,0,2,2A2,2,0,0,0,11.84,30.26Z"/>
      <path class="cls-1" d="M2.69,68.59A2.29,2.29,0,1,1,5,66.31H5A2.29,2.29,0,0,1,2.69,68.59Zm0-4.3a2,2,0,1,0,2,2h0A2,2,0,0,0,2.69,64.29Z"/>
      <circle class="cls-2" cx="11.97" cy="49.23" r="2.15"/>
      <rect class="cls-1" x="67.52" y="32.14" width="22.33" height="0.27"/>
      <rect class="cls-1" x="65.23" y="34.41" width="0.27" height="12.66"/>
      <rect class="cls-1" x="45.19" y="49.09" width="17.89" height="0.27"/>
      <rect class="cls-1" x="76.66" y="50.3" width="18.56" height="0.27"/>
      <rect class="cls-1" x="74.51" y="52.72" width="0.27" height="11.43"/>
      <rect class="cls-1" x="40.75" y="66.17" width="31.61" height="0.27"/>
      <rect class="cls-1" x="38.47" y="55.82" width="0.27" height="8.34"/>
      <circle class="cls-2" cx="65.37" cy="32.28" r="2.15"/>
      <path class="cls-1" d="M62.68,24.61A2.29,2.29,0,1,1,65,22.33,2.28,2.28,0,0,1,62.68,24.61Zm0-4.3a2,2,0,1,0,2,2,2,2,0,0,0-2-2Z"/>
      <path class="cls-1" d="M38.6,24.61a2.29,2.29,0,1,1,2.29-2.28A2.29,2.29,0,0,1,38.6,24.61Zm0-4.3a2,2,0,1,0,2,2,2,2,0,0,0-2-2Z"/>
      <path class="cls-1" d="M74.51,52.86a2.29,2.29,0,1,1,2.29-2.29h0A2.3,2.3,0,0,1,74.51,52.86Zm0-4.31a2,2,0,1,0,2,2h0A2,2,0,0,0,74.51,48.55Z"/>
      <circle class="cls-2" cx="74.51" cy="66.31" r="2.15"/>
      <path class="cls-1" d="M38.6,68.59a2.29,2.29,0,1,1,2.29-2.28h0A2.29,2.29,0,0,1,38.6,68.59Zm0-4.3a2,2,0,1,0,2,2h0A2,2,0,0,0,38.6,64.29Z"/>
      <path class="cls-1" d="M65.23,51.51a2.29,2.29,0,1,1,2.29-2.28h0A2.29,2.29,0,0,1,65.23,51.51Zm0-4.3a2,2,0,1,0,2,2A2,2,0,0,0,65.23,47.21Z"/>
      <path class="cls-1" d="M2.69,46a2.69,2.69,0,1,0,2.69,2.69A2.68,2.68,0,0,0,2.69,46Zm0,.8a.81.81,0,1,1-.81.81A.81.81,0,0,1,2.69,46.8Zm0,3.89a2,2,0,0,1-1.61-.86c0-.54,1.07-.84,1.61-.84s1.6.3,1.61.84A2,2,0,0,1,2.69,50.69Z"/>
      <path class="cls-1" d="M12,9.28A2.69,2.69,0,1,0,14.66,12,2.68,2.68,0,0,0,12,9.28Zm0,.81a.81.81,0,1,1-.81.8A.8.8,0,0,1,12,10.09ZM12,14a1.93,1.93,0,0,1-1.61-.86c0-.54,1.07-.83,1.61-.83s1.6.29,1.61.83A1.93,1.93,0,0,1,12,14Z"/>
      <path class="cls-1" d="M62.68,0a2.69,2.69,0,1,0,2.69,2.69A2.68,2.68,0,0,0,62.68,0Zm0,.81a.81.81,0,1,1-.81.8A.8.8,0,0,1,62.68.81Zm0,3.88a1.94,1.94,0,0,1-1.62-.86c0-.54,1.08-.83,1.62-.83s1.6.29,1.61.83A1.94,1.94,0,0,1,62.68,4.69Z"/>
      <path class="cls-1" d="M93.61,29.45a2.69,2.69,0,1,0,2.69,2.69A2.69,2.69,0,0,0,93.61,29.45Zm0,.81a.81.81,0,1,1-.81.81A.81.81,0,0,1,93.61,30.26Zm0,3.89A2,2,0,0,1,92,33.29c0-.54,1.07-.84,1.61-.84s1.6.3,1.61.84A2,2,0,0,1,93.61,34.15Z"/>
      <path class="cls-1" d="M98.72,47.61a2.69,2.69,0,1,0,2.69,2.69A2.69,2.69,0,0,0,98.72,47.61Zm0,.81a.81.81,0,1,1-.81.81A.81.81,0,0,1,98.72,48.42Zm0,3.88a1.93,1.93,0,0,1-1.61-.86c0-.54,1.07-.83,1.61-.83s1.6.29,1.61.83A1.93,1.93,0,0,1,98.72,52.3Z"/>
      <path class="cls-2" d="M40,44.28a5,5,0,1,0,3.67,6.11A5,5,0,0,0,40,44.28Z"/>
      <path class="cls-3" d="M40.09,49.92a1.28,1.28,0,0,0,0-1.5A1.3,1.3,0,0,0,38.68,48a1.23,1.23,0,0,0-.89,1.17c0,.86,0,1.72,0,2.59A.33.33,0,0,0,38,52a2.93,2.93,0,0,0,2.27-.05l.36.42a3.48,3.48,0,0,1-4.46-1.1,3.54,3.54,0,0,1,.69-4.82,3.5,3.5,0,0,1,4.69.28L40.47,48a1.9,1.9,0,0,1,0,2.42l1.1,1.29-.41.38-.19-.2-2.06-2.44-.07-.09c-.13-.14-.16-.3,0-.43s.3-.08.43.07Zm.67-3.17a3,3,0,0,0-4.15.74,2.91,2.91,0,0,0,.6,4c0-.76,0-1.5,0-2.24a2.34,2.34,0,0,1,.18-.84A1.85,1.85,0,0,1,40,47.6Z"/>
    </g>
  </g>
</svg>
