<svg xmlns="http://www.w3.org/2000/svg" viewBox="0 0 195.24 43.56">
  <defs>
    <style>
      .cls-1 {
        fill: #ff6c02;
      }

      .cls-2 {
        fill: #fff;
      }

      .cls-3 {
        fill: #1e266d;
      }
    </style>
  </defs>
  <g id="Layer_2" data-name="Layer 2">
    <g id="Layer_1-2" data-name="Layer 1">
      <rect class="cls-1" width="43.56" height="43.56" rx="3.23"/>
      <path class="cls-2" d="M28.91,26A6.07,6.07,0,0,0,29,18.7a6.21,6.21,0,0,0-6.88-2.28,6.06,6.06,0,0,0-4.33,5.65q-.09,6.27,0,12.54a1.75,1.75,0,0,0,1,1.2,14.38,14.38,0,0,0,11-.24l1.74,2C25.74,41,15.63,40.3,9.9,32.26A17.18,17.18,0,0,1,13.26,8.88C20.08,3.46,30.48,4,36,10.25l-5.22,6.18c2.8,4.39,2.81,7.65,0,11.73l5.32,6.3-2,1.81c-.33-.36-.62-.64-.88-.94l-10-11.84-.36-.44c-.61-.7-.77-1.44,0-2.09s1.46-.39,2.07.33C26.23,22.83,27.54,24.35,28.91,26Zm3.25-15.39c-6.27-4.72-15.55-3-20.12,3.58C7.28,21,9.75,29.93,15,33.48c0-3.69-.08-7.29,0-10.89a11.66,11.66,0,0,1,.88-4.08c1.74-4,7.07-6.86,12.77-3.82Z"/>
      <g>
        <path class="cls-3" d="M65.55,28v14.2H55v-39H67.79q15.9,0,15.9,11.53,0,6.78-6.62,10.49l11.37,17h-12L68.22,28Zm0-7.93h2c3.68,0,5.53-1.62,5.53-4.88q0-4-5.42-4H65.55Z"/>
        <path class="cls-3" d="M120.25,27q0,7.43-4,11.57t-11.17,4.15q-6.89,0-11-4.24T90.07,27c0-4.93,1.33-8.75,4-11.49s6.39-4.09,11.2-4.09a16,16,0,0,1,7.87,1.89,13.08,13.08,0,0,1,5.27,5.43A17.62,17.62,0,0,1,120.25,27Zm-19.58,0a13.34,13.34,0,0,0,1,5.94,3.6,3.6,0,0,0,3.49,2,3.52,3.52,0,0,0,3.43-2,13.86,13.86,0,0,0,1-5.94,13.25,13.25,0,0,0-1-5.84,4,4,0,0,0-6.91,0A12.82,12.82,0,0,0,100.67,27Z"/>
        <path class="cls-3" d="M145.28,42.21V25.71a9.46,9.46,0,0,0-.87-4.55,3,3,0,0,0-2.78-1.53,4,4,0,0,0-3.82,2.11q-1.17,2.1-1.17,7.23V42.21H126.2V12h7.87l1.31,3.74H136a8.25,8.25,0,0,1,3.7-3.2,12.93,12.93,0,0,1,5.43-1.07q5,0,7.81,2.91c1.86,1.94,2.78,4.67,2.78,8.19V42.21Z"/>
        <path class="cls-3" d="M172.93,25.21a53.64,53.64,0,0,1,3.23-4.7L182.93,12h11.64L184.08,24.83l11.16,17.38H183.31l-6.62-10.84L173.3,34v8.25H162.81V.68H173.3V17a55.21,55.21,0,0,1-.59,8.19Z"/>
      </g>
    </g>
  </g>
</svg>
